<svg width="19" height="19" viewBox="0 0 19 19" fill="none" xmlns="http://www.w3.org/2000/svg">
<path d="M18.3113 4.87844L14.1216 0.68969C13.9823 0.550366 13.8169 0.439846 13.6349 0.364442C13.4529 0.289039 13.2578 0.250229 13.0608 0.250229C12.8638 0.250229 12.6687 0.289039 12.4867 0.364442C12.3047 0.439846 12.1393 0.550366 12 0.68969L0.439695 12.25C0.299801 12.3888 0.188889 12.554 0.113407 12.736C0.0379245 12.918 -0.000621974 13.1133 7.58901e-06 13.3103V17.5C7.58901e-06 17.8978 0.158043 18.2794 0.439347 18.5607C0.720652 18.842 1.10218 19 1.50001 19H5.68969C5.88675 19.0006 6.08196 18.9621 6.26399 18.8866C6.44602 18.8111 6.61122 18.7002 6.75001 18.5603L14.5941 10.7172L14.9203 12.0203L11.4703 15.4694C11.3296 15.61 11.2505 15.8007 11.2504 15.9997C11.2503 16.1986 11.3292 16.3894 11.4699 16.5302C11.6105 16.6709 11.8012 16.75 12.0001 16.7501C12.1991 16.7502 12.3899 16.6712 12.5306 16.5306L16.2806 12.7806C16.3724 12.6891 16.4388 12.5753 16.4734 12.4505C16.5081 12.3256 16.5098 12.1939 16.4784 12.0681L15.8316 9.47969L18.3113 7C18.4506 6.86071 18.5611 6.69534 18.6365 6.51332C18.7119 6.33131 18.7507 6.13623 18.7507 5.93922C18.7507 5.74221 18.7119 5.54713 18.6365 5.36512C18.5611 5.18311 18.4506 5.01773 18.3113 4.87844ZM1.50001 14.8103L4.18969 17.5H1.50001V14.8103ZM6.00001 17.1897L1.81032 13L9.75001 5.06031L13.9397 9.25L6.00001 17.1897ZM15 8.18969L10.8113 4L13.0613 1.75L17.25 5.93969L15 8.18969Z" fill="white"/>
</svg>
