<svg width="20" height="16" viewBox="0 0 20 16" fill="none" xmlns="http://www.w3.org/2000/svg">
<path d="M18.75 0.815918H0.75C0.551088 0.815918 0.360322 0.894936 0.21967 1.03559C0.0790176 1.17624 0 1.36701 0 1.56592V14.3159C0 14.7137 0.158035 15.0953 0.43934 15.3766C0.720644 15.6579 1.10218 15.8159 1.5 15.8159H18C18.3978 15.8159 18.7794 15.6579 19.0607 15.3766C19.342 15.0953 19.5 14.7137 19.5 14.3159V1.56592C19.5 1.36701 19.421 1.17624 19.2803 1.03559C19.1397 0.894936 18.9489 0.815918 18.75 0.815918ZM18 14.3159H1.5V3.27123L9.24281 10.369C9.38118 10.4961 9.56217 10.5665 9.75 10.5665C9.93783 10.5665 10.1188 10.4961 10.2572 10.369L18 3.27123V14.3159Z" fill="#4D4D4D"/>
</svg>
