<svg width="29" height="29" viewBox="0 0 29 29" fill="none" xmlns="http://www.w3.org/2000/svg">
<path d="M25.5418 14.4997C25.5382 17.2798 24.5182 19.9626 22.6738 22.0429C20.8295 24.1231 18.2881 25.4572 15.5285 25.7937C15.467 25.8007 15.4048 25.7945 15.3459 25.7757C15.287 25.7568 15.2328 25.7257 15.1868 25.6844C15.1408 25.643 15.1041 25.5924 15.0791 25.5359C15.0541 25.4793 15.0414 25.4181 15.0418 25.3562V17.1247H17.6668C17.7867 17.1249 17.9054 17.1005 18.0156 17.053C18.1257 17.0054 18.2249 16.9357 18.3069 16.8482C18.389 16.7608 18.4522 16.6573 18.4926 16.5444C18.533 16.4314 18.5497 16.3114 18.5418 16.1917C18.5224 15.9667 18.4186 15.7574 18.2512 15.6058C18.0838 15.4542 17.8652 15.3716 17.6394 15.3747H15.0418V12.7497C15.0418 12.2855 15.2261 11.8404 15.5543 11.5122C15.8825 11.184 16.3276 10.9997 16.7918 10.9997H18.5418C18.6617 10.9999 18.7804 10.9755 18.8906 10.928C19.0007 10.8804 19.0999 10.8107 19.1819 10.7232C19.264 10.6357 19.3272 10.5323 19.3676 10.4194C19.408 10.3064 19.4247 10.1864 19.4168 10.0667C19.3974 9.84131 19.2933 9.63165 19.1254 9.48002C18.9575 9.32839 18.7384 9.24607 18.5122 9.24967H16.7918C15.8635 9.24967 14.9733 9.61842 14.3169 10.2748C13.6605 10.9312 13.2918 11.8214 13.2918 12.7497V15.3747H10.6668C10.5468 15.3744 10.4281 15.3988 10.318 15.4464C10.2078 15.4939 10.1087 15.5636 10.0266 15.6511C9.94455 15.7386 9.88136 15.842 9.84096 15.955C9.80056 16.0679 9.78381 16.1879 9.79176 16.3076C9.81111 16.533 9.91523 16.7427 10.0831 16.8943C10.251 17.0459 10.4701 17.1283 10.6963 17.1247H13.2918V25.3584C13.2921 25.4202 13.2794 25.4813 13.2545 25.5378C13.2296 25.5942 13.193 25.6448 13.1471 25.6861C13.1012 25.7274 13.0471 25.7586 12.9884 25.7775C12.9296 25.7964 12.8675 25.8027 12.8061 25.7959C9.97262 25.4508 7.37191 24.0546 5.51878 21.8834C3.66565 19.7123 2.69516 16.9246 2.79942 14.072C3.01817 8.16576 7.80223 3.3642 13.7129 3.13451C15.2431 3.07524 16.7696 3.32521 18.201 3.86947C19.6324 4.41374 20.9394 5.24111 22.0437 6.30212C23.148 7.36312 24.0269 8.63595 24.628 10.0445C25.229 11.453 25.5398 12.9683 25.5418 14.4997Z" fill="#4D4D4D"/>
</svg>
