<svg width="29" height="29" viewBox="0 0 29 29" fill="none" xmlns="http://www.w3.org/2000/svg">
<path d="M24.4582 3.125H5.20819C4.74406 3.125 4.29894 3.30937 3.97075 3.63756C3.64257 3.96575 3.45819 4.41087 3.45819 4.875V24.125C3.45819 24.5891 3.64257 25.0342 3.97075 25.3624C4.29894 25.6906 4.74406 25.875 5.20819 25.875H24.4582C24.9223 25.875 25.3674 25.6906 25.6956 25.3624C26.0238 25.0342 26.2082 24.5891 26.2082 24.125V4.875C26.2082 4.41087 26.0238 3.96575 25.6956 3.63756C25.3674 3.30937 24.9223 3.125 24.4582 3.125ZM11.3332 19.75C11.3332 19.9821 11.241 20.2046 11.0769 20.3687C10.9128 20.5328 10.6903 20.625 10.4582 20.625C10.2261 20.625 10.0036 20.5328 9.83947 20.3687C9.67538 20.2046 9.58319 19.9821 9.58319 19.75V12.75C9.58319 12.5179 9.67538 12.2954 9.83947 12.1313C10.0036 11.9672 10.2261 11.875 10.4582 11.875C10.6903 11.875 10.9128 11.9672 11.0769 12.1313C11.241 12.2954 11.3332 12.5179 11.3332 12.75V19.75ZM10.4582 11C10.1986 11 9.94484 10.923 9.72901 10.7788C9.51317 10.6346 9.34494 10.4296 9.2456 10.1898C9.14626 9.94994 9.12027 9.68604 9.17091 9.43144C9.22155 9.17684 9.34656 8.94298 9.53011 8.75942C9.71367 8.57587 9.94753 8.45086 10.2021 8.40022C10.4567 8.34958 10.7206 8.37557 10.9605 8.47491C11.2003 8.57425 11.4053 8.74247 11.5495 8.95831C11.6937 9.17415 11.7707 9.42791 11.7707 9.6875C11.7707 10.0356 11.6324 10.3694 11.3863 10.6156C11.1401 10.8617 10.8063 11 10.4582 11ZM20.9582 19.75C20.9582 19.9821 20.866 20.2046 20.7019 20.3687C20.5378 20.5328 20.3153 20.625 20.0832 20.625C19.8511 20.625 19.6286 20.5328 19.4645 20.3687C19.3004 20.2046 19.2082 19.9821 19.2082 19.75V15.8125C19.2082 15.2323 18.9777 14.6759 18.5675 14.2657C18.1573 13.8555 17.6009 13.625 17.0207 13.625C16.4405 13.625 15.8841 13.8555 15.4739 14.2657C15.0637 14.6759 14.8332 15.2323 14.8332 15.8125V19.75C14.8332 19.9821 14.741 20.2046 14.5769 20.3687C14.4128 20.5328 14.1903 20.625 13.9582 20.625C13.7261 20.625 13.5036 20.5328 13.3395 20.3687C13.1754 20.2046 13.0832 19.9821 13.0832 19.75V12.75C13.0843 12.5357 13.164 12.3292 13.3072 12.1697C13.4504 12.0103 13.6472 11.9089 13.8602 11.8849C14.0731 11.8609 14.2875 11.9159 14.4626 12.0395C14.6378 12.1631 14.7614 12.3466 14.8102 12.5553C15.4021 12.1538 16.0923 11.921 16.8065 11.8821C17.5207 11.8432 18.232 11.9996 18.8641 12.3344C19.4961 12.6693 20.025 13.17 20.3939 13.7828C20.7629 14.3955 20.958 15.0972 20.9582 15.8125V19.75Z" fill="#4D4D4D"/>
</svg>
