<svg width="42" height="42" viewBox="0 0 42 42" fill="none" xmlns="http://www.w3.org/2000/svg">
<circle cx="21" cy="21" r="21" fill="#999999"/>
<path d="M30.3113 15.8784L26.1216 11.6897C25.9823 11.5504 25.8169 11.4398 25.6349 11.3644C25.4529 11.289 25.2578 11.2502 25.0608 11.2502C24.8638 11.2502 24.6687 11.289 24.4867 11.3644C24.3047 11.4398 24.1393 11.5504 24 11.6897L12.4397 23.25C12.2998 23.3888 12.1889 23.554 12.1134 23.736C12.0379 23.918 11.9994 24.1133 12 24.3103V28.5C12 28.8978 12.158 29.2794 12.4393 29.5607C12.7207 29.842 13.1022 30 13.5 30H17.6897C17.8868 30.0006 18.082 29.9621 18.264 29.8866C18.446 29.8111 18.6112 29.7002 18.75 29.5603L26.5941 21.7172L26.9203 23.0203L23.4703 26.4694C23.3296 26.61 23.2505 26.8007 23.2504 26.9997C23.2503 27.1986 23.3292 27.3894 23.4699 27.5302C23.6105 27.6709 23.8012 27.75 24.0001 27.7501C24.1991 27.7502 24.3899 27.6712 24.5306 27.5306L28.2806 23.7806C28.3724 23.6891 28.4388 23.5753 28.4734 23.4505C28.5081 23.3256 28.5098 23.1939 28.4784 23.0681L27.8316 20.4797L30.3113 18C30.4506 17.8607 30.5611 17.6953 30.6365 17.5133C30.7119 17.3313 30.7507 17.1362 30.7507 16.9392C30.7507 16.7422 30.7119 16.5471 30.6365 16.3651C30.5611 16.1831 30.4506 16.0177 30.3113 15.8784ZM13.5 25.8103L16.1897 28.5H13.5V25.8103ZM18 28.1897L13.8103 24L21.75 16.0603L25.9397 20.25L18 28.1897ZM27 19.1897L22.8113 15L25.0613 12.75L29.25 16.9397L27 19.1897Z" fill="white"/>
</svg>
