<svg width="19" height="20" viewBox="0 0 19 20" fill="none" xmlns="http://www.w3.org/2000/svg">
<path d="M18.7388 15.1045C18.5716 16.3748 17.9477 17.5409 16.9837 18.3849C16.0196 19.2288 14.7813 19.693 13.5 19.6907C6.05626 19.6907 8.4831e-06 13.6345 8.4831e-06 6.19073C-0.00228837 4.90944 0.461903 3.67112 1.30588 2.70707C2.14986 1.74301 3.31592 1.11914 4.58626 0.951978C4.9075 0.912754 5.2328 0.978474 5.51362 1.13933C5.79444 1.30018 6.0157 1.54754 6.14438 1.84448L8.12438 6.26479V6.27604C8.2229 6.50334 8.26359 6.7515 8.24282 6.99836C8.22204 7.24522 8.14044 7.48309 8.00532 7.69073C7.98845 7.71604 7.97063 7.73948 7.95188 7.76292L6.00001 10.0767C6.7022 11.5035 8.1947 12.9829 9.64032 13.687L11.9222 11.7454C11.9446 11.7266 11.9681 11.709 11.9925 11.6929C12.2 11.5545 12.4387 11.4701 12.687 11.4472C12.9353 11.4242 13.1854 11.4636 13.4147 11.5617L13.4269 11.5673L17.8434 13.5464C18.1409 13.6746 18.3889 13.8956 18.5503 14.1765C18.7116 14.4574 18.7778 14.7829 18.7388 15.1045Z" fill="black"/>
</svg>
