<svg width="29" height="29" viewBox="0 0 29 29" fill="none" xmlns="http://www.w3.org/2000/svg">
<path d="M23.25 4.17041H5.75C5.28587 4.17041 4.84075 4.35478 4.51256 4.68297C4.18437 5.01116 4 5.45628 4 5.92041V23.4204C4 23.8845 4.18437 24.3297 4.51256 24.6578C4.84075 24.986 5.28587 25.1704 5.75 25.1704H23.25C23.7141 25.1704 24.1592 24.986 24.4874 24.6578C24.8156 24.3297 25 23.8845 25 23.4204V5.92041C25 5.45628 24.8156 5.01116 24.4874 4.68297C24.1592 4.35478 23.7141 4.17041 23.25 4.17041ZM20.3691 19.3013C20.4504 19.3826 20.5148 19.4792 20.5588 19.5854C20.6028 19.6916 20.6255 19.8054 20.6255 19.9204C20.6255 20.0354 20.6028 20.1492 20.5588 20.2554C20.5148 20.3617 20.4504 20.4582 20.3691 20.5395C20.2878 20.6208 20.1913 20.6853 20.085 20.7293C19.9788 20.7733 19.865 20.7959 19.75 20.7959C19.635 20.7959 19.5212 20.7733 19.415 20.7293C19.3087 20.6853 19.2122 20.6208 19.1309 20.5395L14.5 15.9074L9.86906 20.5395C9.70488 20.7037 9.48219 20.7959 9.25 20.7959C9.01781 20.7959 8.79512 20.7037 8.63094 20.5395C8.46675 20.3753 8.37451 20.1526 8.37451 19.9204C8.37451 19.6882 8.46675 19.4655 8.63094 19.3013L13.263 14.6704L8.63094 10.0395C8.46675 9.87529 8.37451 9.6526 8.37451 9.42041C8.37451 9.18822 8.46675 8.96553 8.63094 8.80135C8.79512 8.63716 9.01781 8.54492 9.25 8.54492C9.48219 8.54492 9.70488 8.63716 9.86906 8.80135L14.5 13.4334L19.1309 8.80135C19.2951 8.63716 19.5178 8.54492 19.75 8.54492C19.9822 8.54492 20.2049 8.63716 20.3691 8.80135C20.5332 8.96553 20.6255 9.18822 20.6255 9.42041C20.6255 9.6526 20.5332 9.87529 20.3691 10.0395L15.737 14.6704L20.3691 19.3013Z" fill="#4D4D4D"/>
</svg>
