<svg width="29" height="29" viewBox="0 0 29 29" fill="none" xmlns="http://www.w3.org/2000/svg">
<path d="M26.1298 8.10375C26.0268 7.70054 25.8293 7.32761 25.5538 7.01573C25.2782 6.70384 24.9324 6.46195 24.545 6.31C20.7956 4.86188 14.8281 4.875 14.5 4.875C14.1719 4.875 8.20437 4.86188 4.455 6.31C4.06755 6.46195 3.72179 6.70384 3.44623 7.01573C3.17067 7.32761 2.97322 7.70054 2.87016 8.10375C2.58688 9.19532 2.25 11.1903 2.25 14.5C2.25 17.8097 2.58688 19.8047 2.87016 20.8963C2.97306 21.2997 3.17045 21.6728 3.44601 21.9849C3.72158 22.297 4.06743 22.539 4.455 22.6911C8.04688 24.0769 13.6687 24.125 14.4278 24.125H14.5722C15.3313 24.125 20.9564 24.0769 24.545 22.6911C24.9326 22.539 25.2784 22.297 25.554 21.9849C25.8296 21.6728 26.0269 21.2997 26.1298 20.8963C26.4131 19.8025 26.75 17.8097 26.75 14.5C26.75 11.1903 26.4131 9.19532 26.1298 8.10375ZM18.0645 15.2131L13.6895 18.2756C13.5587 18.3673 13.4052 18.4214 13.2457 18.432C13.0863 18.4427 12.927 18.4095 12.7851 18.336C12.6432 18.2625 12.5242 18.1516 12.4408 18.0152C12.3575 17.8789 12.3131 17.7223 12.3125 17.5625V11.4375C12.3125 11.2774 12.3565 11.1204 12.4396 10.9836C12.5226 10.8468 12.6417 10.7354 12.7837 10.6615C12.9257 10.5876 13.0852 10.5541 13.2449 10.5646C13.4047 10.5751 13.5584 10.6293 13.6895 10.7211L18.0645 13.7836C18.1796 13.8643 18.2736 13.9715 18.3384 14.0962C18.4033 14.2209 18.4371 14.3594 18.4371 14.5C18.4371 14.6406 18.4033 14.7791 18.3384 14.9038C18.2736 15.0285 18.1796 15.1357 18.0645 15.2164V15.2131Z" fill="#4D4D4D"/>
</svg>
